<svg xmlns="http://www.w3.org/2000/svg" xmlns:xlink="http://www.w3.org/1999/xlink" width="500" zoomAndPan="magnify" viewBox="0 0 375 374.999991" height="500" preserveAspectRatio="xMidYMid meet" version="1.0"><defs><clipPath id="03a5cee503"><path d="M 147 81 L 220 81 L 220 288 L 147 288 Z M 147 81 " clip-rule="nonzero"/></clipPath><clipPath id="896304dae0"><path d="M 127.992188 90.242188 L 194.859375 73.21875 L 246.667969 276.726562 L 179.800781 293.75 Z M 127.992188 90.242188 " clip-rule="nonzero"/></clipPath><clipPath id="3021de365f"><path d="M 127.992188 90.242188 L 194.859375 73.21875 L 246.667969 276.726562 L 179.800781 293.75 Z M 127.992188 90.242188 " clip-rule="nonzero"/></clipPath><clipPath id="1c110505fa"><path d="M 127.992188 90.242188 L 194.859375 73.21875 L 246.667969 276.726562 L 179.800781 293.75 Z M 127.992188 90.242188 " clip-rule="nonzero"/></clipPath></defs><g clip-path="url(#03a5cee503)"><g clip-path="url(#896304dae0)"><g clip-path="url(#3021de365f)"><g clip-path="url(#1c110505fa)"><path fill="#000000" d="M 186.191406 210.882812 C 189.335938 199.664062 191.632812 189.007812 195.433594 178.929688 C 197.363281 173.796875 201.351562 168.917969 205.59375 165.316406 C 210.945312 160.78125 216.875 163.460938 218.9375 170.285156 C 223.160156 184.199219 213.195312 206.59375 198.792969 214.46875 C 195.378906 216.335938 194.523438 218.429688 194.46875 221.910156 C 194.238281 236.101562 195.769531 249.9375 201.433594 263.160156 C 201.914062 264.277344 202.289062 265.648438 201.789062 267.15625 C 201.328125 268.554688 199.9375 269.347656 198.519531 269 C 196.632812 268.535156 194.9375 267.109375 194.632812 266.058594 C 191.773438 256.21875 189.21875 246.253906 187.316406 236.183594 C 186.289062 230.757812 186.753906 225.050781 186.535156 219.363281 C 166.769531 217.878906 158.09375 204.453125 153.460938 187.605469 C 144.648438 155.523438 146.609375 123.445312 155.023438 91.601562 C 155.863281 88.429688 157.492188 85.277344 159.480469 82.671875 C 159.90625 82.117188 160.820312 81.949219 161.875 81.875 C 163.769531 81.75 165.492188 83.1875 165.578125 85.097656 C 165.597656 85.503906 165.539062 85.863281 165.359375 86.132812 C 159.136719 95.625 158.550781 106.664062 157.070312 117.300781 C 154.285156 137.257812 154.890625 157.324219 158.234375 177.1875 C 159.960938 187.445312 163.832031 197.054688 171.253906 204.753906 C 175.457031 209.117188 180.386719 211.808594 186.191406 210.882812 Z M 210.902344 171.265625 C 203.238281 175.878906 195.035156 196.933594 197.066406 206.011719 C 207.839844 198.566406 214.992188 180.96875 210.902344 171.265625 Z M 202.304688 280.140625 C 202.21875 280.03125 202.121094 279.9375 202.023438 279.847656 C 196.523438 274.660156 191.125 269.359375 185.4375 264.382812 C 184.902344 263.914062 184.179688 263.667969 183.375 263.511719 C 181.625 263.152344 179.980469 264.4375 179.820312 266.214844 C 179.734375 267.199219 179.765625 268.058594 180.207031 268.480469 C 186.960938 274.863281 193.890625 281.097656 201.246094 286.769531 C 202.542969 287.765625 207.691406 286.574219 208.257812 285.214844 C 211.445312 277.515625 213.960938 269.511719 216.179688 261.457031 C 216.351562 260.847656 215.40625 259.917969 214.328125 258.960938 C 213.171875 257.929688 211.425781 257.957031 210.289062 259 C 209.367188 259.84375 208.527344 260.71875 208.242188 261.746094 C 206.613281 267.488281 205.578125 273.410156 204.332031 279.261719 C 204.296875 279.410156 204.28125 279.574219 204.273438 279.726562 C 204.097656 283.054688 203.664062 281.832031 202.316406 280.148438 Z M 202.304688 280.140625 " fill-opacity="1" fill-rule="nonzero"/></g></g></g></g></svg>